<svg width="48" height="48" viewBox="0 0 48 48" fill="none" xmlns="http://www.w3.org/2000/svg">
<path opacity="0.4" d="M22.9846 5.578H15.5066C9.35661 5.578 5.50061 9.932 5.50061 16.096V32.724C5.50061 38.888 9.33861 43.242 15.5066 43.242H33.1546C39.3246 43.242 43.1626 38.888 43.1626 32.724V24.668" stroke="#9699F1" stroke-width="1.5" stroke-linecap="round" stroke-linejoin="round"/>
<path fill-rule="evenodd" clip-rule="evenodd" d="M17.6556 21.8419L32.6016 6.89585C34.4636 5.03585 37.4816 5.03585 39.3436 6.89585L41.7776 9.32985C43.6396 11.1919 43.6396 14.2119 41.7776 16.0719L26.7596 31.0899C25.9456 31.9039 24.8416 32.3619 23.6896 32.3619H16.1976L16.3856 24.8019C16.4136 23.6899 16.8676 22.6299 17.6556 21.8419Z" stroke="#9699F1" stroke-width="1.5" stroke-linecap="round" stroke-linejoin="round"/>
<path d="M30.3304 9.20508L39.4624 18.3371" stroke="#9699F1" stroke-width="1.5" stroke-linecap="round" stroke-linejoin="round"/>
</svg>
