<svg width="48" height="48" viewBox="0 0 48 48" fill="none" xmlns="http://www.w3.org/2000/svg">
<path fill-rule="evenodd" clip-rule="evenodd" d="M34.5558 27.7783C35.9053 27.7783 37.0379 28.892 36.8316 30.2246C35.6211 38.0646 28.9095 43.8857 20.8147 43.8857C11.859 43.8857 4.60001 36.6267 4.60001 27.673C4.60001 20.2962 10.2042 13.4246 16.5137 11.8709C17.8695 11.5362 19.259 12.4899 19.259 13.8857C19.259 23.3425 19.5768 25.7888 21.3726 27.1193C23.1684 28.4499 25.28 27.7783 34.5558 27.7783Z" stroke="#9699F1" stroke-width="1.5" stroke-linecap="round" stroke-linejoin="round"/>
<path opacity="0.4" fill-rule="evenodd" clip-rule="evenodd" d="M43.385 19.9031C43.4924 13.8274 36.0293 4.03367 26.9345 4.2021C26.2272 4.21473 25.6608 4.8042 25.6293 5.50946C25.3998 10.5053 25.7093 16.9789 25.8819 19.9137C25.9345 20.8274 26.6524 21.5453 27.564 21.5979C30.5808 21.7705 37.2903 22.0063 42.2145 21.261C42.884 21.16 43.3745 20.5789 43.385 19.9031Z" stroke="#9699F1" stroke-width="1.5" stroke-linecap="round" stroke-linejoin="round"/>
</svg>
