<svg width="345" height="422" viewBox="0 0 345 422" fill="none" xmlns="http://www.w3.org/2000/svg">
<path d="M37.6762 39C16.9009 39 0 55.9009 0 76.6762V345.324C0 366.099 16.9009 383 37.6762 383H306.324C327.099 383 344 366.099 344 345.324V76.6762C344 55.9009 327.099 39 306.324 39H37.6762Z" fill="#F2F2F2"/>
<path d="M111.5 163H63.5C60.1859 162.996 57.0087 161.678 54.6653 159.335C52.3219 156.991 51.0037 153.814 51 150.5V102.5C51.0037 99.186 52.3219 96.0087 54.6653 93.6653C57.0087 91.3219 60.1859 90.0037 63.5 90H111.5C114.814 90.0037 117.991 91.3219 120.335 93.6653C122.678 96.0087 123.996 99.186 124 102.5V150.5C123.996 153.814 122.678 156.991 120.335 159.335C117.991 161.678 114.814 162.996 111.5 163V163Z" fill="white"/>
<path d="M281.5 163H233.5C230.186 162.996 227.009 161.678 224.665 159.335C222.322 156.991 221.004 153.814 221 150.5V102.5C221.004 99.186 222.322 96.0087 224.665 93.6653C227.009 91.3219 230.186 90.0037 233.5 90H281.5C284.814 90.0037 287.991 91.3219 290.335 93.6653C292.678 96.0087 293.996 99.186 294 102.5V150.5C293.996 153.814 292.678 156.991 290.335 159.335C287.991 161.678 284.814 162.996 281.5 163V163Z" fill="#999CEE"/>
<path d="M196.5 163H148.5C145.186 162.996 142.009 161.678 139.665 159.335C137.322 156.991 136.004 153.814 136 150.5V102.5C136.004 99.186 137.322 96.0087 139.665 93.6653C142.009 91.3219 145.186 90.0037 148.5 90H196.5C199.814 90.0037 202.991 91.3219 205.335 93.6653C207.678 96.0087 208.996 99.186 209 102.5V150.5C208.996 153.814 207.678 156.991 205.335 159.335C202.991 161.678 199.814 162.996 196.5 163V163Z" fill="white"/>
<path d="M63.5 176C60.451 176.003 57.5279 177.216 55.372 179.372C53.2161 181.528 52.0034 184.451 52 187.5V235.5C52.0035 238.549 53.2162 241.472 55.3721 243.628C57.528 245.784 60.4511 246.997 63.5 247H111.5C114.549 246.997 117.472 245.784 119.628 243.628C121.784 241.472 122.997 238.549 123 235.5V187.5C122.997 184.451 121.784 181.528 119.628 179.372C117.472 177.216 114.549 176.003 111.5 176H63.5Z" fill="white"/>
<path d="M280.5 248H232.5C229.186 247.996 226.009 246.678 223.665 244.335C221.322 241.991 220.004 238.814 220 235.5V187.5C220.004 184.186 221.322 181.009 223.665 178.665C226.009 176.322 229.186 175.004 232.5 175H280.5C283.814 175.004 286.991 176.322 289.335 178.665C291.678 181.009 292.996 184.186 293 187.5V235.5C292.996 238.814 291.678 241.991 289.335 244.335C286.991 246.678 283.814 247.996 280.5 248V248Z" fill="white"/>
<path d="M196.5 333H148.5C145.186 332.996 142.009 331.678 139.665 329.335C137.322 326.991 136.004 323.814 136 320.5V272.5C136.004 269.186 137.322 266.009 139.665 263.665C142.009 261.322 145.186 260.004 148.5 260H196.5C199.814 260.004 202.991 261.322 205.335 263.665C207.678 266.009 208.996 269.186 209 272.5V320.5C208.996 323.814 207.678 326.991 205.335 329.335C202.991 331.678 199.814 332.996 196.5 333V333Z" fill="white"/>
<path d="M111.5 333H63.5C60.1859 332.996 57.0087 331.678 54.6653 329.335C52.3219 326.991 51.0037 323.814 51 320.5V272.5C51.0037 269.186 52.3219 266.009 54.6653 263.665C57.0087 261.322 60.1859 260.004 63.5 260H111.5C114.814 260.004 117.991 261.322 120.335 263.665C122.678 266.009 123.996 269.186 124 272.5V320.5C123.996 323.814 122.678 326.991 120.335 329.335C117.991 331.678 114.814 332.996 111.5 333V333Z" fill="#999CEE"/>
<path d="M281.5 333H233.5C230.186 332.996 227.009 331.678 224.665 329.335C222.322 326.991 221.004 323.814 221 320.5V272.5C221.004 269.186 222.322 266.009 224.665 263.665C227.009 261.322 230.186 260.004 233.5 260H281.5C284.814 260.004 287.991 261.322 290.335 263.665C292.678 266.009 293.996 269.186 294 272.5V320.5C293.996 323.814 292.678 326.991 290.335 329.335C287.991 331.678 284.814 332.996 281.5 333V333Z" fill="white"/>
<path d="M195.5 248H147.5C144.186 247.996 141.009 246.678 138.665 244.335C136.322 241.991 135.004 238.814 135 235.5V187.5C135.004 184.186 136.322 181.009 138.665 178.665C141.009 176.322 144.186 175.004 147.5 175H195.5C198.814 175.004 201.991 176.322 204.335 178.665C206.678 181.009 207.996 184.186 208 187.5V235.5C207.996 238.814 206.678 241.991 204.335 244.335C201.991 246.678 198.814 247.996 195.5 248V248Z" fill="#999CEE"/>
<path d="M31.3889 30.9996L297.382 32.906C305.932 32.9672 312.931 26.0672 312.993 17.5175C313.054 8.96769 306.154 1.96804 297.604 1.90676L31.6111 0.00037384C23.0613 -0.0609062 16.0617 6.83912 16.0004 15.3889C15.9391 23.9386 22.8392 30.9383 31.3889 30.9996V30.9996Z" fill="#F2F2F2"/>
<path d="M337.119 13.6421C333.253 13.6421 330.119 16.7761 330.119 20.6421C330.119 24.5081 333.253 27.6421 337.119 27.6421C340.985 27.6421 344.119 24.5081 344.119 20.6421C344.119 16.7761 340.985 13.6421 337.119 13.6421Z" fill="#999CEE"/>
<path d="M328.73 390.907L62.7366 389C54.1868 388.939 47.1872 395.839 47.1259 404.389C47.0646 412.939 53.9646 419.938 62.5144 420L328.508 421.906C337.057 421.967 344.057 415.067 344.118 406.517C344.18 397.968 337.279 390.968 328.73 390.907V390.907Z" fill="#F2F2F2"/>
<path d="M23 408.264C26.866 408.264 30 405.13 30 401.264C30 397.398 26.866 394.264 23 394.264C19.134 394.264 16 397.398 16 401.264C16 405.13 19.134 408.264 23 408.264Z" fill="#999CEE"/>
</svg>
